<?xml version="1.0" encoding="UTF-8"?>
<svg id="Layer_2" data-name="Layer 2" xmlns="http://www.w3.org/2000/svg" viewBox="0 0 336.3 370.64">
  <defs>
    <style>
      .cls-1 {
        fill: #000;
        stroke-width: 0px;
      }
    </style>
  </defs>
  <g id="Layer_1-2" data-name="Layer 1">
    <g>
      <path class="cls-1" d="M335.54,236.27c-1.28-13.95-7.27-25.18-19.04-33.06-3.12-2.09-6.32-4.12-9.65-5.84-12.17-6.28-24.39-12.47-36.66-18.56-2.19-1.09-3.2-2.35-3.25-4.86-.38-19.95-8.7-36.1-24.05-48.61-17.42-14.21-34.68-28.67-52.67-42.12-7.33-5.48-10.53-11.22-9.26-20.1.37-2.6,1.09-3.02,3.36-2.96,5.66.14,11.32.06,16.98.04,1.88,0,3.75,0,5.58-.66,5.68-2.04,9.41-7.84,8.64-13.57-.88-6.64-5.98-11.35-12.93-11.58-6.06-.2-12.13-.17-18.19,0-2.53.07-3.49-.48-3.38-3.25.23-5.92.13-11.85.06-17.78C180.98,5.52,175.43-.08,167.96,0c-7.29.08-12.64,5.63-12.73,13.32-.07,5.79-.21,11.6.06,17.37.15,3.07-.75,3.76-3.75,3.73-6.85-.07-13.77-.78-20.56.39-6.29,1.08-10.65,6.95-10.29,13.1.39,6.64,5.58,11.89,12.23,12.21,3.5.17,7.01-.05,10.51.1,3.86.17,9-1.74,11.19.78,1.89,2.17.36,7.2.65,10.94.21,2.71-.81,4.35-2.91,6.02-18.57,14.72-36.97,29.65-55.55,44.36-16.82,13.31-27.25,29.92-27.47,51.93-.02,2.44-1.18,3.49-3.15,4.5-14.12,7.18-28.57,13.72-42.26,21.75-11.16,6.55-19.21,15.54-22,28.49C.45,235.87.03,242.88.03,249.89c0,26.54,0,53.08-.03,79.62,0,4.86.24,9.68.76,14.51,1.42,13.23,9.44,22.44,22.39,25.26,3.27.71,6.67,1.09,10.01,1.12,18.31.16,36.63.2,54.94.22,26.67.03,53.34,0,80.01,0h51.71c23.03,0,46.06.02,69.09-.01,5.52,0,11.05.02,16.57-.27,16.85-.89,26.86-9.03,29.74-24.24.85-4.49,1.08-9.08,1.08-13.68-.03-26.14-.02-52.27.01-78.41,0-5.93-.22-11.85-.77-17.75ZM65.12,344.85c-10.77-.3-21.56-.14-32.33-.33-5.74-.1-6.06-.49-6.63-6.11-.25-2.41-.26-4.84-.26-7.26-.01-26.81-.04-53.62.03-80.43.01-4.43.39-8.88.79-13.3.48-5.39,2.9-9.68,7.51-12.73,10.79-7.13,22.7-12.1,34.69-18.47,0,4.33,0,7.82,0,11.31,0,41.09-.03,82.19.06,123.28,0,2.99-.51,4.14-3.86,4.04ZM186.08,344.84c-11.99-.19-23.98-.16-35.97-.02-2.73.03-3.72-.58-3.65-3.51.2-8.75.07-17.51.07-26.27h.01c0-8.76-.18-17.52.05-26.27.3-11.48,7.97-19.84,19.22-21.39,9.84-1.36,19.62,4.98,22.82,14.77.89,2.72,1.16,5.52,1.16,8.36,0,16.84-.08,33.68.07,50.52.03,3.02-.71,3.86-3.78,3.81ZM237.5,344.85c-6.18-.29-12.4-.22-18.59-.02-2.67.09-3.34-.72-3.32-3.34.12-17.38.16-34.76.03-52.14-.17-22.47-14.8-41.34-35.89-46.56-30.08-7.45-58.69,14.84-59.04,46.18-.2,17.38-.12,34.76.04,52.14.03,3.06-.76,3.86-3.77,3.73-5.92-.25-11.86-.28-17.78,0-3.42.16-4.53-.6-4.5-4.33.19-28.02.1-56.05.1-84.07h.04c0-25.05.26-50.11-.09-75.15-.23-16.28,5.45-29.04,18.55-39.06,17.65-13.49,34.76-27.67,52.05-41.62,1.88-1.52,3.14-2.11,5.39-.29,17.46,14.17,34.95,28.31,52.64,42.19,11.52,9.03,18.38,20.15,17.99,35.17-.11,4.43.17,8.87.17,13.31.01,49.85-.02,99.7.08,149.55,0,3.24-.6,4.47-4.1,4.31ZM310.31,333.6c-.12,12,.3,10.7-10.84,11.03-9.69.28-19.39.06-29.08.18-2.1.03-3.06-.28-3.05-2.77.08-44.69.06-89.39.07-134.08,0-.38.13-.77.28-1.59,11.84,6.31,24.16,11.31,35.14,18.86,4.16,2.86,6.19,7.01,6.73,11.9.41,3.74.78,7.51.79,11.27.07,28.4.24,56.81-.05,85.21Z"/>
      <path class="cls-1" d="M150.97,168.03c0-9.5,7.55-17.14,17.06-17.27,9.57-.13,17.48,7.71,17.47,17.31-.01,9.63-7.83,17.33-17.51,17.23-9.49-.1-17.03-7.74-17.02-17.26Z"/>
    </g>
  </g>
</svg>